<?xml version="1.0" standalone="no"?>
<!DOCTYPE svg PUBLIC "-//W3C//DTD SVG 20010904//EN"
 "http://www.w3.org/TR/2001/REC-SVG-20010904/DTD/svg10.dtd">
<svg version="1.0" xmlns="http://www.w3.org/2000/svg"
 width="537.000000pt" height="537.000000pt" viewBox="0 0 537.000000 537.000000"
 preserveAspectRatio="xMidYMid meet">
<metadata>
Created by potrace 1.11, written by Peter Selinger 2001-2013
</metadata>
<g transform="translate(0.000000,537.000000) scale(0.100000,-0.100000)"
fill="#000000" stroke="none">
<path d="M2114 4771 l0 -589 45 14 c92 29 187 53 231 59 24 4 48 9 51 11 4 2
49 7 101 10 l94 6 34 -34 c66 -64 66 -63 -8 -65 -75 -2 -187 -11 -223 -18 -13
-3 -41 -7 -63 -11 -70 -10 -271 -81 -367 -129 -286 -144 -529 -387 -669 -670
-53 -108 -108 -259 -124 -340 -4 -16 -9 -41 -11 -55 -21 -103 -27 -342 -12
-472 16 -145 80 -346 160 -505 23 -44 108 -176 150 -230 6 -9 402 -408 878
-886 l866 -869 0 596 c-1 328 -1 596 -1 596 -1 0 -34 -11 -75 -25 -99 -34
-251 -64 -359 -71 l-88 -6 -35 34 c-65 65 -65 64 4 65 382 2 761 158 1027 423
111 110 140 143 196 225 99 144 176 316 219 490 34 141 40 197 39 385 -1 239
-41 412 -144 626 -109 225 -95 211 -1039 1157 -476 477 -868 867 -871 867 -4
0 -6 -265 -6 -589z m681 -995 c81 -7 195 -34 278 -66 413 -159 692 -551 703
-990 1 -69 -1 -147 -6 -175 -18 -103 -21 -121 -31 -160 -34 -132 -154 -343
-256 -451 -183 -193 -429 -315 -688 -340 -93 -10 -105 -10 -212 -1 -374 28
-710 257 -884 599 -38 76 -82 196 -93 254 -21 115 -24 153 -21 264 1 69 10
161 19 205 99 461 499 818 966 862 36 3 66 6 67 7 3 2 88 -2 158 -8z"/>
<path d="M2625 3633 c-255 -24 -455 -115 -617 -280 -183 -185 -276 -411 -276
-667 0 -390 235 -738 598 -883 343 -138 752 -56 1014 203 194 192 290 433 282
709 -4 136 -7 150 -42 260 -82 252 -248 443 -489 562 -137 67 -337 108 -470
96z"/>
</g>
</svg>
