<?xml version="1.0" standalone="no"?>
<!DOCTYPE svg PUBLIC "-//W3C//DTD SVG 20010904//EN"
 "http://www.w3.org/TR/2001/REC-SVG-20010904/DTD/svg10.dtd">
<svg version="1.0" xmlns="http://www.w3.org/2000/svg"
 width="246.000000pt" height="246.000000pt" viewBox="0 0 246.000000 246.000000"
 preserveAspectRatio="xMidYMid meet">
<metadata>
Created by potrace 1.11, written by Peter Selinger 2001-2013
</metadata>
<g transform="translate(0.000000,246.000000) scale(0.100000,-0.100000)"
fill="#000000" stroke="none">
<path d="M870 2300 c-11 -11 -20 -28 -21 -37 -3 -78 1 -318 6 -333 3 -10 22
-24 41 -30 29 -10 39 -9 59 4 23 15 31 32 37 83 2 18 63 -37 332 -305 222
-220 335 -340 347 -367 23 -50 23 -128 1 -177 -10 -22 -91 -113 -194 -217 -98
-99 -178 -186 -178 -193 0 -19 132 -148 151 -148 8 0 99 84 201 188 143 144
192 201 216 247 72 144 66 314 -16 450 -14 24 -176 194 -359 377 l-334 333 40
3 c73 6 103 81 50 125 -18 15 -44 17 -190 17 -156 0 -171 -2 -189 -20z"/>
<path d="M818 1683 c-143 -145 -192 -202 -215 -248 -52 -103 -66 -220 -39
-320 31 -118 52 -144 402 -495 184 -185 334 -338 334 -341 0 -3 -13 -4 -30 -3
-68 5 -108 -78 -59 -122 18 -17 39 -19 191 -20 230 -2 218 -15 215 213 -1 160
-2 169 -24 190 -29 30 -68 29 -99 -2 -19 -19 -24 -32 -20 -56 2 -16 1 -29 -4
-27 -5 2 -153 146 -330 321 -227 225 -327 330 -340 360 -24 52 -25 130 -2 180
10 21 93 114 195 216 97 98 177 185 177 192 0 18 -134 149 -152 149 -8 0 -98
-84 -200 -187z"/>
<path d="M1180 1599 c-30 -12 -296 -273 -316 -311 -18 -34 -18 -91 0 -126 8
-15 79 -91 158 -169 116 -115 150 -143 180 -148 74 -14 94 -2 246 149 79 77
150 153 158 168 18 35 18 91 0 126 -21 40 -287 299 -319 311 -34 13 -73 13
-107 0z"/>
</g>
</svg>
