<?xml version="1.0" encoding="utf-8"?>
<!-- Generator: Adobe Illustrator 16.0.3, SVG Export Plug-In . SVG Version: 6.00 Build 0)  -->
<!DOCTYPE svg PUBLIC "-//W3C//DTD SVG 1.1//EN" "http://www.w3.org/Graphics/SVG/1.1/DTD/svg11.dtd">
<svg version="1.1" id="Layer_1" xmlns="http://www.w3.org/2000/svg" xmlns:xlink="http://www.w3.org/1999/xlink" x="0px" y="0px"
	 width="133px" height="20px" viewBox="0 0 133 20" enable-background="new 0 0 133 20" xml:space="preserve">
<polygon fill="#004071" points="15.889,0.492 20.854,0.492 20.854,19.337 15.284,19.337 5.017,6.198 4.965,6.198 4.965,19.337 
	0,19.337 0,0.492 5.94,0.492 15.838,13.639 15.889,13.639 "/>
<polygon fill="#004071" points="24.733,0.574 42.344,0.574 42.344,4.166 29.858,4.166 29.858,8.074 41.713,8.074 41.713,11.504 
	29.858,11.504 29.858,15.833 42.446,15.833 42.446,19.42 24.733,19.42 "/>
<polygon fill="#004071" points="45.85,0.574 50.971,0.574 50.971,15.677 62.453,15.677 62.453,19.42 45.85,19.42 "/>
<g>
	<path fill="#004071" d="M77.917,6.037c-0.317-2.453-2.668-2.714-4.724-2.714c-2.114,0-3.486,0.951-3.486,2.214
		c0,1.005,0.849,1.557,2.165,1.768l6.417,1.032c3.428,0.554,6.041,1.845,6.041,5.276c0,3.512-2.374,6.337-9.792,6.337
		c-4.593,0-10.56-0.579-10.613-6.467h5.758c0.052,2.587,2.638,3.034,4.855,3.034c2.399,0,4.041-0.709,4.041-2.347
		c0-1.453-1.166-1.85-3.197-2.164l-4.671-0.712c-3.273-0.501-6.441-1.483-6.441-5.335c0-4.194,3.431-5.91,9.348-5.91
		c3.878,0,9.63,0.654,9.977,5.987H77.917z"/>
	<path fill="#004071" d="M97.732,0.05c-10.139,0-11.719,6.017-11.719,9.95c0,3.932,1.58,9.95,11.719,9.95
		c10.136,0,11.72-6.019,11.72-9.95C109.452,6.067,107.868,0.05,97.732,0.05 M97.732,16.359c-4.648,0-6.282-3.43-6.282-6.359
		c0-2.929,1.634-6.363,6.282-6.363c4.644,0,6.283,3.435,6.283,6.363C104.016,12.929,102.376,16.359,97.732,16.359"/>
	<polygon fill="#004071" points="128.035,0.574 133,0.574 133,19.42 127.429,19.42 117.163,6.281 117.108,6.281 117.108,19.42 
		112.146,19.42 112.146,0.574 118.084,0.574 127.987,13.721 128.035,13.721 	"/>
</g>
</svg>
